<svg xmlns="http://www.w3.org/2000/svg" enable-background="new 0 0 100 100" viewBox="0 0 100 100" id="fast-charging">
  <path d="M19.5,50c0,0.83-0.67,1.5-1.5,1.5s-1.5-0.67-1.5-1.5c0-18.47,15.03-33.5,33.5-33.5c0.83,0,1.5,0.67,1.5,1.5
	s-0.67,1.5-1.5,1.5C33.18,19.5,19.5,33.18,19.5,50z M38.79,86.84c-1.22-0.37-2.44-0.81-3.62-1.3c-0.77-0.32-1.64,0.04-1.96,0.81
	c-0.32,0.76,0.04,1.64,0.8,1.96c1.27,0.53,2.59,1,3.91,1.41c0.14,0.04,0.29,0.07,0.44,0.07c0.64,0,1.24-0.42,1.43-1.06
	C40.03,87.92,39.58,87.08,38.79,86.84z M28.41,81.88c-1.06-0.72-2.09-1.5-3.07-2.32c-0.64-0.53-1.58-0.45-2.11,0.19
	c-0.53,0.64-0.45,1.58,0.19,2.11c1.06,0.88,2.17,1.72,3.31,2.5c0.26,0.18,0.55,0.26,0.84,0.26c0.48,0,0.95-0.23,1.24-0.66
	C29.27,83.28,29.1,82.35,28.41,81.88z M50.19,88.5c0,0-0.01,0-0.01,0l-0.17,0c-1.22,0-2.46-0.06-3.67-0.17
	c-0.83-0.08-1.56,0.53-1.63,1.35c-0.08,0.82,0.53,1.56,1.35,1.63c1.3,0.12,2.63,0.19,3.95,0.19l0.2,0c0.83-0.01,1.5-0.68,1.49-1.51
	C51.68,89.16,51.01,88.5,50.19,88.5z M61.55,86.74c-1.22,0.38-2.47,0.71-3.72,0.97c-0.81,0.17-1.33,0.96-1.17,1.77
	c0.15,0.71,0.77,1.2,1.47,1.2c0.1,0,0.2-0.01,0.31-0.03c1.35-0.28,2.7-0.63,4.02-1.04c0.79-0.25,1.23-1.09,0.98-1.88
	C63.18,86.93,62.34,86.49,61.55,86.74z M86,80.5h-7.88C86.66,72.65,91.5,61.72,91.5,50C91.5,27.12,72.88,8.5,50,8.5
	S8.5,27.12,8.5,50c0,9.07,2.87,17.68,8.31,24.92c0,0,0,0,0,0c0.26,0.35,0.53,0.69,0.8,1.03c0.3,0.37,0.73,0.56,1.17,0.56
	c0.33,0,0.66-0.11,0.94-0.33c0.65-0.52,0.75-1.46,0.23-2.11c-0.25-0.32-0.5-0.64-0.75-0.96c0,0,0,0,0,0
	C14.17,66.41,11.5,58.41,11.5,50c0-21.23,17.27-38.5,38.5-38.5S88.5,28.77,88.5,50c0,11.14-4.71,21.53-13,28.84V70
	c0-0.83-0.67-1.5-1.5-1.5s-1.5,0.67-1.5,1.5v12c0,0.83,0.67,1.5,1.5,1.5h12c0.83,0,1.5-0.67,1.5-1.5S86.83,80.5,86,80.5z
	 M71.38,45.4c0.24,0.55,0.13,1.18-0.28,1.62l-28,30c-0.29,0.31-0.69,0.48-1.1,0.48c-0.23,0-0.47-0.05-0.68-0.17
	c-0.6-0.31-0.92-0.97-0.79-1.63l3.64-18.21H30c-0.59,0-1.12-0.34-1.37-0.88c-0.24-0.54-0.15-1.16,0.24-1.61l28-32
	c0.44-0.51,1.17-0.66,1.78-0.36c0.61,0.29,0.95,0.96,0.82,1.62L55.8,44.5H70C70.6,44.5,71.14,44.85,71.38,45.4z M66.55,47.5H54
	c-0.44,0-0.87-0.2-1.15-0.54c-0.29-0.34-0.4-0.79-0.32-1.23l3.03-16.66L33.31,54.5H46c0.45,0,0.88,0.2,1.16,0.55
	c0.29,0.35,0.4,0.8,0.31,1.25l-2.96,14.82L66.55,47.5z"></path>
</svg>
